<svg width="63" height="55" viewBox="0 0 63 55" fill="none" xmlns="http://www.w3.org/2000/svg">
<g id="Group 3">
<g id="Group 3_2">
<rect id="Rectangle 7" y="0.25" width="62.8567" height="54.5" rx="8" fill="#023047"/>
<path id="Vector" d="M50.5849 25.5364L12.4954 25.5176C11.7884 25.5177 11.4453 24.7132 11.9599 24.262L30.0059 8.44101C30.3065 8.17739 30.7758 8.17735 31.0766 8.44091L50.5849 25.5364V46.314C50.5849 46.7153 50.2353 47.0406 49.8041 47.0406H39.3385C38.9073 47.0406 38.5577 46.7153 38.5577 46.314V35.8781C38.5577 34.8912 38.1354 33.9448 37.3837 33.247C36.632 32.5492 35.6125 32.1572 34.5494 32.1572H26.5329C25.4699 32.1572 24.4504 32.5492 23.6987 33.247C22.947 33.9448 22.5247 34.8912 22.5247 35.8781V45.5009C22.5247 46.115 23.2925 46.4522 23.8019 46.0618L50.5849 25.5364Z" fill="#FFB703"/>
</g>
</g>
</svg>
